<svg version="1.1" id="Layer_1" xmlns="http://www.w3.org/2000/svg" xmlns:xlink="http://www.w3.org/1999/xlink" x="0px" y="0px"
	 width="100%" viewBox="0 0 193 193" enable-background="new 0 0 193 193" xml:space="preserve">
<path fill="#FCFCFC" opacity="1.000000" stroke="none" 
	d="
M1.000000,74.000000 
	C1.000000,49.333340 1.000000,25.166677 1.000000,1.000013 
	C65.333313,1.000009 129.666626,1.000009 193.999954,1.000004 
	C193.999969,65.333298 193.999969,129.666595 193.999985,193.999908 
	C129.666718,193.999939 65.333435,193.999939 1.000078,193.999969 
	C1.000000,154.166672 1.000000,114.333336 1.000000,74.000000 
M184.527908,114.073174 
	C185.751328,114.699890 186.974762,115.326607 188.707947,116.214455 
	C189.108276,113.392754 189.418411,111.206802 189.937653,108.137886 
	C189.601196,99.107780 189.264740,90.077682 189.011673,80.238991 
	C186.024506,71.843414 183.037323,63.447838 180.122147,54.315784 
	C175.788269,44.251137 167.830887,36.967373 160.579636,28.392895 
	C154.454468,23.947878 148.653229,18.937813 142.125168,15.195626 
	C133.232544,10.097966 123.461678,7.589382 113.276161,5.395586 
	C104.113777,3.422156 95.404518,5.967896 86.463806,4.405648 
	C81.455650,3.530553 75.712914,5.901440 70.498123,7.466189 
	C66.228676,8.747276 62.381321,11.424134 58.117321,12.736399 
	C48.155804,15.802098 40.468365,22.158730 32.436104,29.300814 
	C24.404339,37.047413 17.851559,45.865993 12.658575,56.562336 
	C10.059281,65.355843 7.459987,74.149353 4.438455,83.675400 
	C4.519103,92.629822 4.599752,101.584251 4.655461,111.326683 
	C5.650746,115.039543 6.646031,118.752403 8.550864,122.794197 
	C15.702670,124.379013 21.957733,121.694946 27.997707,118.473969 
	C35.102924,114.684929 41.595951,114.517578 48.308460,119.730766 
	C51.469681,122.185898 55.590298,124.328751 59.472698,124.734993 
	C66.946907,125.517059 74.560936,124.962929 82.116974,124.962929 
	C82.453094,124.399536 82.789215,123.836136 83.125336,123.272743 
	C70.518341,122.388390 61.864960,116.529770 56.888256,105.107277 
	C58.100513,104.944145 58.666771,104.679527 59.033443,104.848366 
	C62.012569,106.220154 64.954323,107.673119 68.087776,109.698921 
	C68.596367,109.833130 69.104965,109.967339 70.658012,110.377151 
	C69.378632,109.237228 68.935570,108.842461 68.083672,107.931419 
	C58.642288,98.123665 55.180004,90.991753 57.229027,84.538689 
	C59.554619,87.024925 61.452915,89.542839 63.816948,91.497467 
	C74.283577,100.151436 84.298866,109.533836 95.592262,116.956535 
	C108.159142,125.216263 122.507881,124.117393 136.615463,120.526428 
	C129.737442,120.622742 124.572861,116.927879 119.653687,112.894508 
	C116.997208,110.716385 115.058716,110.609352 112.303360,112.977959 
	C110.704109,114.352737 107.495659,115.395767 105.798828,114.691292 
	C104.039818,113.961014 102.575951,111.064568 102.163223,108.891388 
	C101.559517,105.712654 102.007919,102.334114 102.007919,99.689003 
	C98.618584,101.549423 94.737251,103.679916 90.855911,105.810402 
	C95.598648,100.003540 100.739418,95.118713 105.131485,89.634300 
	C109.899063,83.681007 112.251045,83.453545 117.997086,88.562157 
	C120.945740,91.183701 124.859573,92.719650 128.337219,94.746208 
	C128.570206,94.318123 128.803207,93.890038 129.036194,93.461952 
	C121.131134,83.025505 113.056763,61.454384 115.497581,55.423367 
	C118.111794,59.173561 120.466324,62.477631 122.742210,65.835007 
	C125.484932,69.881042 128.130844,73.992729 130.875031,78.037766 
	C133.166458,81.415443 135.888153,84.551155 137.801300,88.124870 
	C141.489288,95.013916 145.486298,101.388992 154.176743,103.970451 
	C154.782028,103.915131 155.387314,103.859810 156.775482,103.732933 
	C155.499680,103.132370 154.941116,102.869431 153.991577,102.063271 
	C151.898804,99.685112 149.806030,97.306953 147.236847,94.387421 
	C150.008652,93.851288 151.605179,93.542473 153.694427,93.694649 
	C154.127899,93.802139 154.561356,93.909637 155.311050,94.603760 
	C160.914917,99.724060 166.518784,104.844368 172.481796,110.394363 
	C172.984558,110.568489 173.487335,110.742615 174.576309,111.366554 
	C176.665436,112.150558 178.754547,112.934563 181.404877,113.980614 
	C182.214539,113.940353 183.024185,113.900101 184.527908,114.073174 
M27.127659,157.009888 
	C26.524273,153.414062 25.920887,149.818237 25.211435,145.590317 
	C21.048397,151.479355 22.560774,155.503510 27.297337,159.509796 
	C69.240517,203.939484 138.072327,200.158493 173.041687,151.503937 
	C177.161484,145.771866 177.110947,144.975296 172.080444,139.224731 
	C170.962311,144.180618 169.885117,148.954956 168.807922,153.729309 
	C168.501251,153.742966 168.194580,153.756622 167.887894,153.770279 
	C167.067245,151.515503 166.246597,149.260727 165.087845,146.076981 
	C163.914993,150.723755 162.976456,154.442139 161.841995,158.936844 
	C160.944199,156.617264 160.353973,155.092316 159.492966,152.867798 
	C159.044601,154.874817 158.771317,156.098175 158.304779,158.186584 
	C156.933365,153.317703 155.843338,149.447830 154.375122,144.235275 
	C153.137573,148.958786 152.263489,152.295029 151.451508,155.394241 
	C150.085739,149.429855 148.680084,143.291367 147.274429,137.152863 
	C146.954498,137.226181 146.634567,137.299484 146.314636,137.372787 
	C145.111679,142.331116 143.908707,147.289444 142.705750,152.247787 
	C142.239258,152.165085 141.772766,152.082397 141.306274,151.999710 
	C140.743835,149.826508 140.181396,147.653305 139.573914,145.306076 
	C138.717850,146.646118 137.912140,147.907379 136.910812,149.474838 
	C136.033234,145.858505 135.278992,142.750458 134.360168,138.964142 
	C132.626831,142.664429 131.336304,145.419418 129.833115,148.628418 
	C129.118591,147.304672 128.805847,146.725281 128.421555,146.013336 
	C127.542915,148.590546 126.776276,150.839233 126.009636,153.087921 
	C125.619362,153.065277 125.229080,153.042618 124.838799,153.019974 
	C123.810410,147.916687 122.782013,142.813400 121.753624,137.710114 
	C121.459274,137.646835 121.164932,137.583557 120.870583,137.520279 
	C119.411598,142.571854 117.952614,147.623444 116.307220,153.320419 
	C115.209915,150.424255 114.360077,148.181259 113.179283,145.064774 
	C111.812889,149.665253 110.671227,153.509048 109.553024,157.273865 
	C108.996162,156.199799 108.342163,154.938370 107.581276,153.470779 
	C106.945457,155.371445 106.467964,156.798798 105.813652,158.754745 
	C104.676140,154.240356 103.738503,150.519165 102.671722,146.285492 
	C101.512146,149.176407 100.605049,151.437881 99.305504,154.677750 
	C97.926117,148.970535 96.793243,144.283249 95.660370,139.595978 
	C95.214203,139.654144 94.768044,139.712311 94.321884,139.770493 
	C93.368546,143.296112 92.415207,146.821747 91.461853,150.347427 
	C90.867210,148.864914 90.212471,147.232544 89.443283,145.314865 
	C88.601303,147.883774 87.907730,149.999893 87.214165,152.115997 
	C86.724365,152.124756 86.234566,152.133530 85.744766,152.142303 
	C84.731392,147.232162 83.718018,142.322021 82.704643,137.411896 
	C82.378960,137.366165 82.053276,137.320435 81.727585,137.274704 
	C80.317154,142.453293 78.906715,147.631897 77.349945,153.347778 
	C76.298752,150.444794 75.388084,147.929916 74.193893,144.632019 
	C72.862679,149.082458 71.720764,152.900040 70.560562,156.778763 
	C69.898811,155.612701 69.243454,154.457916 68.550201,153.236359 
	C67.961731,154.952133 67.467751,156.392380 66.710281,158.600876 
	C65.595741,153.987534 64.703705,150.295197 63.665478,145.997757 
	C62.474625,148.876053 61.583160,151.030746 60.142860,154.511963 
	C58.824600,148.485779 57.839939,143.984589 56.855274,139.483383 
	C56.478073,139.514450 56.100872,139.545502 55.723671,139.576569 
	C54.663685,142.905289 53.603695,146.234024 52.532299,149.598572 
	C51.928967,148.132584 51.331348,146.680481 50.611389,144.931107 
	C49.797474,147.699707 49.110641,150.036011 48.423809,152.372330 
	C47.974182,152.326355 47.524555,152.280396 47.074932,152.234436 
	C46.022980,147.232544 44.971027,142.230652 43.919075,137.228760 
	C43.546947,137.187775 43.174820,137.146790 42.802692,137.105789 
	C41.344208,143.262131 39.885723,149.418488 38.385548,155.750809 
	C37.571114,152.233917 36.754490,148.707565 35.630981,143.856033 
	C34.058292,149.093094 32.911896,152.910583 31.478443,157.683975 
	C31.056318,155.573990 30.829660,154.441040 30.541016,152.998276 
	C29.166971,154.883850 28.131584,156.304688 27.127659,157.009888 
M17.251141,146.175919 
	C18.001322,147.106262 18.751501,148.036606 19.501682,148.966949 
	C19.836920,148.817459 20.172159,148.667953 20.507399,148.518463 
	C19.627972,145.178177 18.748543,141.837891 17.869116,138.497604 
	C17.292259,138.589035 16.715403,138.680466 16.138546,138.771896 
	C16.410030,141.039337 16.681515,143.306793 17.251141,146.175919 
z"/>
<path fill="#060606" opacity="1.000000" stroke="none" 
	d="
M27.096199,157.725540 
	C28.131584,156.304688 29.166971,154.883850 30.541016,152.998276 
	C30.829660,154.441040 31.056318,155.573990 31.478443,157.683975 
	C32.911896,152.910583 34.058292,149.093094 35.630981,143.856033 
	C36.754490,148.707565 37.571114,152.233917 38.385548,155.750809 
	C39.885723,149.418488 41.344208,143.262131 42.802692,137.105789 
	C43.174820,137.146790 43.546947,137.187775 43.919075,137.228760 
	C44.971027,142.230652 46.022980,147.232544 47.074932,152.234436 
	C47.524555,152.280396 47.974182,152.326355 48.423809,152.372330 
	C49.110641,150.036011 49.797474,147.699707 50.611389,144.931107 
	C51.331348,146.680481 51.928967,148.132584 52.532299,149.598572 
	C53.603695,146.234024 54.663685,142.905289 55.723671,139.576569 
	C56.100872,139.545502 56.478073,139.514450 56.855274,139.483383 
	C57.839939,143.984589 58.824600,148.485779 60.142860,154.511963 
	C61.583160,151.030746 62.474625,148.876053 63.665478,145.997757 
	C64.703705,150.295197 65.595741,153.987534 66.710281,158.600876 
	C67.467751,156.392380 67.961731,154.952133 68.550201,153.236359 
	C69.243454,154.457916 69.898811,155.612701 70.560562,156.778763 
	C71.720764,152.900040 72.862679,149.082458 74.193893,144.632019 
	C75.388084,147.929916 76.298752,150.444794 77.349945,153.347778 
	C78.906715,147.631897 80.317154,142.453293 81.727585,137.274704 
	C82.053276,137.320435 82.378960,137.366165 82.704643,137.411896 
	C83.718018,142.322021 84.731392,147.232162 85.744766,152.142303 
	C86.234566,152.133530 86.724365,152.124756 87.214165,152.115997 
	C87.907730,149.999893 88.601303,147.883774 89.443283,145.314865 
	C90.212471,147.232544 90.867210,148.864914 91.461853,150.347427 
	C92.415207,146.821747 93.368546,143.296112 94.321884,139.770493 
	C94.768044,139.712311 95.214203,139.654144 95.660370,139.595978 
	C96.793243,144.283249 97.926117,148.970535 99.305504,154.677750 
	C100.605049,151.437881 101.512146,149.176407 102.671722,146.285492 
	C103.738503,150.519165 104.676140,154.240356 105.813652,158.754745 
	C106.467964,156.798798 106.945457,155.371445 107.581276,153.470779 
	C108.342163,154.938370 108.996162,156.199799 109.553024,157.273865 
	C110.671227,153.509048 111.812889,149.665253 113.179283,145.064774 
	C114.360077,148.181259 115.209915,150.424255 116.307220,153.320419 
	C117.952614,147.623444 119.411598,142.571854 120.870583,137.520279 
	C121.164932,137.583557 121.459274,137.646835 121.753624,137.710114 
	C122.782013,142.813400 123.810410,147.916687 124.838799,153.019974 
	C125.229080,153.042618 125.619362,153.065277 126.009636,153.087921 
	C126.776276,150.839233 127.542915,148.590546 128.421555,146.013336 
	C128.805847,146.725281 129.118591,147.304672 129.833115,148.628418 
	C131.336304,145.419418 132.626831,142.664429 134.360168,138.964142 
	C135.278992,142.750458 136.033234,145.858505 136.910812,149.474838 
	C137.912140,147.907379 138.717850,146.646118 139.573914,145.306076 
	C140.181396,147.653305 140.743835,149.826508 141.306274,151.999710 
	C141.772766,152.082397 142.239258,152.165085 142.705750,152.247787 
	C143.908707,147.289444 145.111679,142.331116 146.314636,137.372787 
	C146.634567,137.299484 146.954498,137.226181 147.274429,137.152863 
	C148.680084,143.291367 150.085739,149.429855 151.451508,155.394241 
	C152.263489,152.295029 153.137573,148.958786 154.375122,144.235275 
	C155.843338,149.447830 156.933365,153.317703 158.304779,158.186584 
	C158.771317,156.098175 159.044601,154.874817 159.492966,152.867798 
	C160.353973,155.092316 160.944199,156.617264 161.841995,158.936844 
	C162.976456,154.442139 163.914993,150.723755 165.087845,146.076981 
	C166.246597,149.260727 167.067245,151.515503 167.887894,153.770279 
	C168.194580,153.756622 168.501251,153.742966 168.807922,153.729309 
	C169.885117,148.954956 170.962311,144.180618 172.080444,139.224731 
	C177.110947,144.975296 177.161484,145.771866 173.041687,151.503937 
	C138.072327,200.158493 69.240517,203.939484 27.211391,158.908157 
	C27.115696,158.112869 27.105949,157.919205 27.096199,157.725540 
z"/>
<path fill="#F58733" opacity="1.000000" stroke="none" 
	d="
M160.719620,29.034252 
	C167.830887,36.967373 175.788269,44.251137 179.693390,54.830025 
	C177.302307,55.560555 175.340759,55.956150 173.377487,55.964966 
	C156.555862,56.040535 139.733917,56.046089 122.620026,55.927406 
	C120.966690,55.159130 119.605423,54.536026 118.121742,53.662422 
	C117.674782,53.245506 117.350227,53.079090 116.876358,52.608025 
	C111.860680,47.183765 110.376816,52.476067 107.802315,55.224747 
	C107.184868,55.626892 106.800018,55.931454 105.924316,56.171085 
	C74.653763,56.066120 43.874065,56.026081 13.094371,55.986042 
	C17.851559,45.865993 24.404339,37.047413 33.204262,29.156166 
	C76.221489,29.019098 118.470551,29.026676 160.719620,29.034252 
z"/>
<path fill="#060505" opacity="1.000000" stroke="none" 
	d="
M118.244156,53.912918 
	C119.605423,54.536026 120.966690,55.159130 122.739525,56.232986 
	C124.473587,58.674339 125.796082,60.664936 127.173553,62.936352 
	C127.498520,63.474449 127.768509,63.731728 128.317520,64.173813 
	C130.713470,67.499886 132.830399,70.641151 135.043610,74.038208 
	C135.403732,74.534706 135.667587,74.775436 136.216034,75.190002 
	C138.937546,78.010277 141.374451,80.656708 143.840454,83.531815 
	C143.869522,83.760483 143.962570,84.212021 144.070953,84.384270 
	C144.356003,84.770630 144.572815,84.930183 145.142090,85.163162 
	C147.300964,86.601631 149.147507,87.912109 151.037277,89.497299 
	C151.721527,89.845726 152.362518,89.919434 153.358322,89.998672 
	C154.818542,90.402435 155.923965,90.800674 157.207031,91.399162 
	C157.725616,91.687080 158.066544,91.774750 158.584503,91.868378 
	C158.761520,91.874352 159.025040,92.111069 159.199295,92.336266 
	C159.912460,92.707855 160.451355,92.854248 161.312683,93.095551 
	C164.758972,96.453880 167.882828,99.717293 171.106064,103.203796 
	C171.396179,103.706367 171.651672,103.900810 171.985672,104.003960 
	C171.999435,103.997726 171.983673,104.022919 171.888947,104.294563 
	C172.532379,105.042725 173.270569,105.519249 174.282639,106.087654 
	C175.048569,106.754395 175.540588,107.329254 176.144409,108.149307 
	C176.556473,108.578560 176.856750,108.762619 177.367325,108.969025 
	C177.577621,108.991364 177.999390,109.022789 178.143982,109.290794 
	C179.195694,110.365646 180.102814,111.172493 180.970703,112.414368 
	C180.902206,113.139130 180.872940,113.428848 180.843674,113.718567 
	C178.754547,112.934563 176.665436,112.150558 174.121628,110.916565 
	C173.152176,110.299278 172.637405,110.131973 172.122635,109.964676 
	C166.518784,104.844368 160.914917,99.724060 155.061508,94.102188 
	C154.275208,93.478294 153.738464,93.355980 153.201706,93.233665 
	C151.605179,93.542473 150.008652,93.851288 147.236847,94.387421 
	C149.806030,97.306953 151.898804,99.685112 153.961685,102.602013 
	C153.813660,103.341599 153.695526,103.542435 153.577408,103.743279 
	C145.486298,101.388992 141.489288,95.013916 137.801300,88.124870 
	C135.888153,84.551155 133.166458,81.415443 130.875031,78.037766 
	C128.130844,73.992729 125.484932,69.881042 122.742210,65.835007 
	C120.466324,62.477631 118.111794,59.173561 115.497581,55.423367 
	C113.056763,61.454384 121.131134,83.025505 129.036194,93.461952 
	C128.803207,93.890038 128.570206,94.318123 128.337219,94.746208 
	C124.859573,92.719650 120.945740,91.183701 117.997086,88.562157 
	C112.251045,83.453545 109.899063,83.681007 105.131485,89.634300 
	C100.739418,95.118713 95.598648,100.003540 90.855911,105.810402 
	C94.737251,103.679916 98.618584,101.549423 102.007919,99.689003 
	C102.007919,102.334114 101.559517,105.712654 102.163223,108.891388 
	C102.575951,111.064568 104.039818,113.961014 105.798828,114.691292 
	C107.495659,115.395767 110.704109,114.352737 112.303360,112.977959 
	C115.058716,110.609352 116.997208,110.716385 119.653687,112.894508 
	C124.572861,116.927879 129.737442,120.622742 136.615463,120.526428 
	C122.507881,124.117393 108.159142,125.216263 95.592262,116.956535 
	C84.298866,109.533836 74.283577,100.151436 63.816948,91.497467 
	C61.452915,89.542839 59.554619,87.024925 57.229027,84.538689 
	C55.180004,90.991753 58.642288,98.123665 68.140976,108.352211 
	C68.198288,108.773003 67.907455,109.101357 67.907455,109.101357 
	C64.954323,107.673119 62.012569,106.220154 59.033443,104.848366 
	C58.666771,104.679527 58.100513,104.944145 56.888256,105.107277 
	C61.864960,116.529770 70.518341,122.388390 83.125336,123.272743 
	C82.789215,123.836136 82.453094,124.399536 82.116974,124.962929 
	C74.560936,124.962929 66.946907,125.517059 59.472698,124.734993 
	C55.590298,124.328751 51.469681,122.185898 48.308460,119.730766 
	C41.595951,114.517578 35.102924,114.684929 27.997707,118.473969 
	C21.957733,121.694946 15.702670,124.379013 8.305641,122.371002 
	C13.747085,117.652618 19.433750,113.357422 25.428585,108.937912 
	C33.528976,100.276062 41.321198,91.738525 49.411812,83.042244 
	C49.827633,82.766869 49.946651,82.651794 50.062256,82.533386 
	C58.966946,73.412910 58.966930,73.412895 67.106483,83.352432 
	C68.953560,85.269066 70.641556,86.886520 72.737823,88.895180 
	C74.486435,86.146866 75.780724,84.112625 77.361465,81.904678 
	C79.187164,79.792290 80.587959,77.720726 82.294548,75.942673 
	C85.820930,72.268639 89.219032,68.373825 93.221184,65.283852 
	C96.651939,62.635036 100.850739,60.980995 105.039375,58.811684 
	C106.257561,57.533279 107.146233,56.330223 108.034912,55.127167 
	C110.376816,52.476067 111.860680,47.183765 117.004089,52.854912 
	C117.602150,53.575275 117.923157,53.744095 118.244156,53.912918 
z"/>
<path fill="#F9A332" opacity="1.000000" stroke="none" 
	d="
M160.649628,28.713573 
	C118.470551,29.026676 76.221489,29.019098 33.506783,29.012638 
	C40.468365,22.158730 48.155804,15.802098 58.117321,12.736399 
	C62.381321,11.424134 66.228676,8.747276 70.498123,7.466189 
	C75.712914,5.901440 81.455650,3.530553 86.463806,4.405648 
	C95.404518,5.967896 104.113777,3.422156 113.276161,5.395586 
	C123.461678,7.589382 133.232544,10.097966 142.125168,15.195626 
	C148.653229,18.937813 154.454468,23.947878 160.649628,28.713573 
z"/>
<path fill="#F36233" opacity="1.000000" stroke="none" 
	d="
M66.947411,83.053246 
	C58.966930,73.412895 58.966946,73.412910 50.062256,82.533386 
	C49.946651,82.651794 49.827633,82.766869 49.174484,82.799973 
	C46.855148,82.683952 45.071236,82.611916 43.287968,82.625305 
	C30.478804,82.721428 17.669769,82.834900 4.860693,82.942863 
	C7.459987,74.149353 10.059281,65.355843 12.876472,56.274189 
	C43.874065,56.026081 74.653763,56.066120 105.782211,56.455189 
	C105.657265,57.498489 105.183571,58.192757 104.709869,58.887024 
	C100.850739,60.980995 96.651939,62.635036 93.221184,65.283852 
	C89.219032,68.373825 85.820930,72.268639 82.294548,75.942673 
	C80.587959,77.720726 79.187164,79.792290 76.916321,81.889030 
	C73.105621,82.382484 70.026512,82.717865 66.947411,83.053246 
z"/>
<path fill="#F36233" opacity="1.000000" stroke="none" 
	d="
M143.811371,83.303139 
	C141.374451,80.656708 138.937546,78.010277 136.156921,74.916458 
	C135.524597,74.240189 135.235962,74.011307 134.947327,73.782425 
	C132.830399,70.641151 130.713470,67.499886 128.265533,63.891846 
	C127.662552,63.168556 127.390564,62.912045 127.118576,62.655533 
	C125.796082,60.664936 124.473587,58.674339 123.031586,56.378159 
	C139.733917,56.046089 156.555862,56.040535 173.377487,55.964966 
	C175.340759,55.956150 177.302307,55.560555 179.657394,55.198265 
	C183.037323,63.447838 186.024506,71.843414 188.591904,80.808731 
	C178.451752,81.592743 168.727570,81.703979 159.012558,82.063507 
	C153.937164,82.251350 148.877914,82.875854 143.811371,83.303139 
z"/>
<path fill="#EF3E33" opacity="1.000000" stroke="none" 
	d="
M4.649573,83.309128 
	C17.669769,82.834900 30.478804,82.721428 43.287968,82.625305 
	C45.071236,82.611916 46.855148,82.683952 48.876091,82.958717 
	C41.321198,91.738525 33.528976,100.276062 24.952595,108.918839 
	C18.440546,108.969604 12.711710,108.851097 6.985897,108.936119 
	C6.209639,108.947647 5.448527,109.979347 4.680402,110.538673 
	C4.599752,101.584251 4.519103,92.629822 4.649573,83.309128 
z"/>
<path fill="#EF3E34" opacity="1.000000" stroke="none" 
	d="
M143.840454,83.531815 
	C148.877914,82.875854 153.937164,82.251350 159.012558,82.063507 
	C168.727570,81.703979 178.451752,81.592743 188.550217,81.213028 
	C189.264740,90.077682 189.601196,99.107780 189.390259,108.575073 
	C185.228378,109.015770 181.613892,109.019279 177.999390,109.022789 
	C177.999390,109.022789 177.577621,108.991364 177.260559,108.720383 
	C176.639862,108.267639 176.336227,108.085876 176.032608,107.904114 
	C175.540588,107.329254 175.048569,106.754395 174.162323,105.821976 
	C173.173309,104.983902 172.578491,104.503410 171.983673,104.022919 
	C171.983673,104.022919 171.999435,103.997726 171.907074,103.765778 
	C171.545364,103.349457 171.276031,103.165085 171.006699,102.980713 
	C167.882828,99.717293 164.758972,96.453880 161.140961,92.866409 
	C160.106232,92.398590 159.565643,92.254829 159.025040,92.111069 
	C159.025040,92.111069 158.761520,91.874352 158.416641,91.651794 
	C157.724304,91.352455 157.376846,91.275688 157.029388,91.198914 
	C155.923965,90.800674 154.818542,90.402435 153.177338,89.776062 
	C152.092392,89.439491 151.543213,89.331047 150.994034,89.222595 
	C149.147507,87.912109 147.300964,86.601631 145.067566,84.961586 
	C144.513641,84.368401 144.274261,84.228401 143.962570,84.212021 
	C143.962570,84.212021 143.869522,83.760483 143.840454,83.531815 
z"/>
<path fill="#E9232F" opacity="1.000000" stroke="none" 
	d="
M4.667932,110.932678 
	C5.448527,109.979347 6.209639,108.947647 6.985897,108.936119 
	C12.711710,108.851097 18.440546,108.969604 24.644424,109.043144 
	C19.433750,113.357422 13.747085,117.652618 7.850867,122.206543 
	C6.646031,118.752403 5.650746,115.039543 4.667932,110.932678 
z"/>
<path fill="#E62433" opacity="1.000000" stroke="none" 
	d="
M178.143982,109.290794 
	C181.613892,109.019279 185.228378,109.015770 189.285706,109.016548 
	C189.418411,111.206802 189.108276,113.392754 188.707947,116.214455 
	C186.974762,115.326607 185.751328,114.699890 184.062469,113.699593 
	C182.734665,112.877121 181.872299,112.428230 181.009933,111.979340 
	C180.102814,111.172493 179.195694,110.365646 178.143982,109.290794 
z"/>
<path fill="#1B1B1B" opacity="1.000000" stroke="none" 
	d="
M27.111931,157.367706 
	C27.105949,157.919205 27.115696,158.112869 27.084885,158.594528 
	C22.560774,155.503510 21.048397,151.479355 25.211435,145.590317 
	C25.920887,149.818237 26.524273,153.414062 27.111931,157.367706 
z"/>
<path fill="#222222" opacity="1.000000" stroke="none" 
	d="
M17.102070,145.875076 
	C16.681515,143.306793 16.410030,141.039337 16.138546,138.771896 
	C16.715403,138.680466 17.292259,138.589035 17.869116,138.497604 
	C18.748543,141.837891 19.627972,145.178177 20.507399,148.518463 
	C20.172159,148.667953 19.836920,148.817459 19.501682,148.966949 
	C18.751501,148.036606 18.001322,147.106262 17.102070,145.875076 
z"/>
<path fill="#0D0909" opacity="1.000000" stroke="none" 
	d="
M180.970703,112.414375 
	C181.872299,112.428230 182.734665,112.877121 183.715454,113.592926 
	C183.024185,113.900101 182.214539,113.940353 181.124268,113.849594 
	C180.872940,113.428848 180.902206,113.139130 180.970703,112.414375 
z"/>
<path fill="#0D0909" opacity="1.000000" stroke="none" 
	d="
M172.302216,110.179520 
	C172.637405,110.131973 173.152176,110.299278 173.828522,110.691666 
	C173.487335,110.742615 172.984558,110.568489 172.302216,110.179520 
z"/>
<path fill="#060505" opacity="1.000000" stroke="none" 
	d="
M68.345398,108.610344 
	C68.935570,108.842461 69.378632,109.237228 70.658012,110.377151 
	C69.104965,109.967339 68.596367,109.833130 67.997620,109.400139 
	C67.907455,109.101357 68.198288,108.773003 68.345398,108.610344 
z"/>
<path fill="#0D0909" opacity="1.000000" stroke="none" 
	d="
M154.157166,102.873627 
	C154.941116,102.869431 155.499680,103.132370 156.775482,103.732933 
	C155.387314,103.859810 154.782028,103.915131 153.877075,103.856865 
	C153.695526,103.542435 153.813660,103.341599 154.157166,102.873627 
z"/>
<path fill="#0D0909" opacity="1.000000" stroke="none" 
	d="
M153.448059,93.464157 
	C153.738464,93.355980 154.275208,93.478294 154.903397,93.808868 
	C154.561356,93.909637 154.127899,93.802139 153.448059,93.464157 
z"/>
<path fill="#0D0909" opacity="1.000000" stroke="none" 
	d="
M105.039375,58.811684 
	C105.183571,58.192757 105.657265,57.498489 106.273071,56.520119 
	C106.800018,55.931454 107.184868,55.626892 107.802315,55.224747 
	C107.146233,56.330223 106.257561,57.533279 105.039375,58.811684 
z"/>
<path fill="#0D0909" opacity="1.000000" stroke="none" 
	d="
M118.121742,53.662422 
	C117.923157,53.744095 117.602150,53.575275 117.153412,53.159565 
	C117.350227,53.079090 117.674782,53.245506 118.121742,53.662422 
z"/>
<path fill="#EA4036" opacity="1.000000" stroke="none" 
	d="
M67.106483,83.352432 
	C70.026512,82.717865 73.105621,82.382484 76.629868,82.062744 
	C75.780724,84.112625 74.486435,86.146866 72.737823,88.895180 
	C70.641556,86.886520 68.953560,85.269066 67.106483,83.352432 
z"/>
<path fill="#0D0909" opacity="1.000000" stroke="none" 
	d="
M171.888947,104.294563 
	C172.578491,104.503410 173.173309,104.983902 173.888428,105.730087 
	C173.270569,105.519249 172.532379,105.042725 171.888947,104.294563 
z"/>
<path fill="#0D0909" opacity="1.000000" stroke="none" 
	d="
M151.037277,89.497299 
	C151.543213,89.331047 152.092392,89.439491 152.822540,89.770538 
	C152.362518,89.919434 151.721527,89.845726 151.037277,89.497299 
z"/>
<path fill="#0D0909" opacity="1.000000" stroke="none" 
	d="
M159.199295,92.336273 
	C159.565643,92.254829 160.106232,92.398590 160.818542,92.771500 
	C160.451355,92.854248 159.912460,92.707855 159.199295,92.336273 
z"/>
<path fill="#0D0909" opacity="1.000000" stroke="none" 
	d="
M176.144409,108.149307 
	C176.336227,108.085876 176.639862,108.267639 177.050262,108.698044 
	C176.856750,108.762619 176.556473,108.578560 176.144409,108.149307 
z"/>
<path fill="#0D0909" opacity="1.000000" stroke="none" 
	d="
M144.070953,84.384270 
	C144.274261,84.228401 144.513641,84.368401 144.755234,84.833603 
	C144.572815,84.930183 144.356003,84.770630 144.070953,84.384270 
z"/>
<path fill="#0D0909" opacity="1.000000" stroke="none" 
	d="
M171.106064,103.203796 
	C171.276031,103.165085 171.545364,103.349457 171.893311,103.772011 
	C171.651672,103.900810 171.396179,103.706367 171.106064,103.203796 
z"/>
<path fill="#0D0909" opacity="1.000000" stroke="none" 
	d="
M135.043610,74.038208 
	C135.235962,74.011307 135.524597,74.240189 135.872330,74.742615 
	C135.667587,74.775436 135.403732,74.534706 135.043610,74.038208 
z"/>
<path fill="#0D0909" opacity="1.000000" stroke="none" 
	d="
M127.173553,62.936352 
	C127.390564,62.912045 127.662552,63.168556 127.986511,63.707039 
	C127.768509,63.731728 127.498520,63.474449 127.173553,62.936352 
z"/>
<path fill="#0D0909" opacity="1.000000" stroke="none" 
	d="
M157.207031,91.399170 
	C157.376846,91.275688 157.724304,91.352455 158.239624,91.645821 
	C158.066544,91.774750 157.725616,91.687080 157.207031,91.399170 
z"/>
</svg>